<?xml version="1.0" standalone="no"?>
<!DOCTYPE svg PUBLIC "-//W3C//DTD SVG 20010904//EN"
 "http://www.w3.org/TR/2001/REC-SVG-20010904/DTD/svg10.dtd">
<svg version="1.0" xmlns="http://www.w3.org/2000/svg"
 width="525.000000pt" height="118.000000pt" viewBox="0 0 525.000000 118.000000"
 preserveAspectRatio="xMidYMid meet">

<g transform="translate(0.000000,118.000000) scale(0.100000,-0.100000)"
fill="#000000" stroke="none">
<path d="M361 1149 c-115 -19 -209 -87 -258 -188 -25 -50 -28 -66 -28 -161 0
-89 3 -111 22 -145 43 -81 96 -116 262 -175 149 -53 184 -99 122 -161 -26 -25
-37 -29 -88 -29 -64 0 -118 21 -189 72 -55 39 -52 41 -128 -103 l-56 -107 48
-30 c160 -103 402 -126 558 -53 151 71 226 224 194 396 -25 130 -105 204 -287
265 -119 39 -145 56 -145 95 0 34 30 62 77 71 39 7 121 -17 160 -48 14 -11 32
-17 40 -14 8 3 37 50 65 106 28 55 52 100 54 100 3 0 79 -106 170 -236 l166
-236 0 -247 c0 -179 3 -250 12 -259 17 -17 269 -17 286 0 9 9 12 80 12 258 l0
246 185 264 c102 145 184 271 183 279 -3 14 -28 16 -170 19 l-167 2 -92 -137
c-85 -126 -93 -136 -105 -118 -7 11 -48 72 -91 135 l-78 115 -170 0 c-165 0
-170 -1 -169 -20 0 -20 -2 -20 -77 6 -69 25 -204 51 -247 48 -9 -1 -41 -5 -71
-10z"/>
<path d="M2132 1118 c-17 -17 -17 -1039 0 -1056 17 -17 269 -17 286 0 9 9 12
68 12 205 l0 192 143 3 142 3 3 128 3 127 -146 0 -145 0 0 70 0 70 148 0 c81
0 152 4 159 8 8 5 13 44 15 114 l3 106 183 -260 182 -260 0 -247 c0 -179 3
-250 12 -259 17 -17 269 -17 286 0 9 9 12 80 12 258 l0 246 185 264 c102 145
184 271 183 279 -3 14 -28 16 -170 19 l-167 2 -92 -137 c-85 -126 -93 -136
-105 -118 -7 11 -48 72 -91 135 l-78 115 -475 3 c-361 2 -479 -1 -488 -10z"/>
<path d="M3950 405 l0 -365 85 0 85 0 0 365 0 365 -85 0 -85 0 0 -365z"/>
<path d="M4690 405 l0 -365 84 0 c50 0 86 4 88 10 2 7 16 4 38 -6 49 -25 144
-22 196 4 83 42 128 120 128 222 1 93 -44 174 -117 212 -54 29 -166 31 -214 5
l-33 -18 0 151 0 150 -85 0 -85 0 0 -365z m313 -69 c14 -13 29 -37 33 -52 14
-56 -53 -126 -105 -109 -27 8 -71 62 -71 86 0 27 26 76 47 88 30 18 69 12 96
-13z"/>
<path d="M4291 496 c-150 -49 -203 -268 -95 -395 19 -21 53 -46 76 -56 55 -22
154 -23 196 -1 18 9 32 12 32 6 0 -6 35 -10 90 -10 l90 0 0 225 0 225 -90 0
c-49 0 -90 -4 -90 -9 0 -5 -13 -3 -30 5 -43 22 -127 26 -179 10z m180 -165
c21 -22 29 -39 29 -66 0 -27 -8 -44 -29 -66 -36 -36 -70 -37 -109 -4 -50 42
-50 98 -1 144 33 30 75 27 110 -8z"/>
<path d="M3551 424 c-36 -46 -27 -105 20 -129 43 -23 77 -18 110 14 60 60 23
141 -65 141 -36 0 -48 -5 -65 -26z"/>
<path d="M1490 135 l0 -95 285 0 286 0 -3 93 -3 92 -282 3 -283 2 0 -95z"/>
<path d="M3575 208 c-49 -26 -60 -86 -24 -132 29 -36 99 -37 134 -1 69 68 -24
180 -110 133z"/>
</g>
</svg>
